<?xml version="1.0" encoding="UTF-8"?><svg id="Layer_1" xmlns="http://www.w3.org/2000/svg" viewBox="0 0 32 32"><defs><style>.cls-1{fill:#fff;}</style></defs><path class="cls-1" d="M13.37,25.38H3c-.09,0-.17-.04-.22-.09h0c-.06-.06-.09-.14-.09-.23,0-.03,0-.06.01-.09h0s.02-.06.03-.08C6.98,17.5,11.27,9.32,15.8,2.16c.04-.07.11-.11.18-.14.08-.02.16-.01.24.03.02.01.05.03.07.05.02.02.04.04.05.07l13.07,22.72c.04.08.05.16.03.24h0c-.02.09-.07.15-.14.19h-.01s-.04.03-.06.03h-.01s-.05.01-.07.01h-10.37v3.68h2.64c.09,0,.17.04.23.09.06.06.09.14.09.23s-.04.17-.09.23-.14.09-.23.09h-10.68c-.09,0-.17-.04-.22-.09h0c-.06-.06-.09-.14-.09-.23s.04-.17.09-.23.14-.09.23-.09h2.64v-3.68h0ZM18.13,29.05v-9.17s0-.08.02-.12c.02-.04.04-.08.07-.1l1.87-1.88v-1.86s-.04.09-.08.13l-2.36,2.38v7.62c0,.09-.04.17-.09.23h-.01c-.06.06-.13.09-.21.09-.09,0-.17-.04-.22-.09h0c-.06-.06-.09-.14-.09-.23v-7.75s0-.08.02-.12c.02-.04.04-.08.07-.1l.73-.74v-6.61s.01-.09.03-.14h0c.02-.05.04-.08.07-.11l1.56-1.53-.89-1.55v.61c0,.08-.03.16-.09.23l-2.14,2.15v2.96l.85-.86c.06-.06.14-.09.23-.09s.16.03.22.09h0c.06.06.09.14.09.23s-.03.16-.09.23l-1.3,1.31v13.77c0,.09-.04.17-.09.23s-.14.09-.23.09-.17-.04-.22-.09h0c-.06-.06-.09-.14-.09-.23v-13.77l-1.3-1.31c-.06-.06-.09-.14-.09-.23s.03-.16.09-.23.14-.09.23-.09.16.03.23.09l.85.86v-2.96l-2.14-2.15s-.05-.06-.07-.1c-.02-.04-.02-.08-.02-.12v-.61l-.89,1.55,1.56,1.53s.06.06.08.11c.02.04.03.09.03.14v6.61l.73.74s.05.06.07.1c.02.04.02.08.02.12v7.75c0,.09-.04.17-.09.23h-.01c-.06.06-.13.09-.21.09-.09,0-.17-.04-.22-.09h0c-.06-.06-.09-.14-.09-.23v-7.62l-2.36-2.38s-.06-.08-.08-.13v1.88l1.85,1.85s.06.06.08.1c.02.04.03.09.03.13v9.17h4.12-.01ZM20.09,15.73v-5.76l-.26-.44-1.36,1.34v5.84l1.09-1.09c.06-.06.14-.09.23-.09s.16.03.23.09h.01s.05.09.06.13h0ZM12.05,15.73s.04-.09.08-.13h0c.06-.06.14-.09.23-.09s.16.03.23.09l1.09,1.09v-5.84l-1.36-1.34-.26.44v5.76h0ZM15.75,6.35l-1.03-1.03-.56.98v1.59l1.59,1.6v-3.13h0ZM15.05,4.74l.7.7v-1.92l-.7,1.22h0ZM16.39,5.44l.7-.7-.7-1.22v1.92ZM17.42,5.32l-1.03,1.03v3.13l1.59-1.6v-1.59l-.56-.98h0ZM11.88,21.96h-2.94c-.09,0-.17-.04-.22-.09h0c-.06-.06-.09-.14-.09-.23s.04-.17.09-.23h.01c.06-.06.13-.09.21-.09h2.3l-1.71-1.71h-3.04l-1.39,2.42h2.33s.08,0,.12.02h.01s.06.04.09.07l2.6,2.62h3.1v-1.28h-.02s-1.47-1.49-1.47-1.49h0ZM11.41,14.25l-1.16-1.16-1.07,1.86,2.23,2.22v-2.91h0ZM10.58,12.51l.83.83v-2.27l-.83,1.44h0ZM9.37,24.73l-2.06-2.07h-2.57l-1.19,2.07h5.82ZM6.87,18.96h2.8s.08,0,.12.02c.04.02.07.04.1.07l3.47,3.49v-2.53l-4.52-4.5-1.98,3.45h0ZM20.89,21.32h2.3c.09,0,.17.04.23.09.06.06.09.14.09.23s-.04.17-.09.23h0c-.06.06-.14.09-.23.09h-2.93l-1.47,1.48h-.02v1.3h3.1l2.6-2.62h.01s.06-.06.09-.07h.01s.07-.03.11-.03h2.33l-1.39-2.42h-3.04l-1.71,1.71h0ZM20.73,13.34l.83-.83-.83-1.44v2.27h0ZM21.88,13.09l-1.16,1.16v2.89l2.21-2.22-1.05-1.83h0ZM27.39,22.66h-2.57l-2.06,2.07h5.82l-1.19-2.07h0ZM18.76,22.55l3.47-3.49s.06-.05.1-.07h.01s.07-.03.11-.03h2.8l-2-3.47-4.5,4.52v2.53h0Z"/></svg>